<?xml version="1.0" standalone="no"?>
<!DOCTYPE svg PUBLIC "-//W3C//DTD SVG 20010904//EN"
 "http://www.w3.org/TR/2001/REC-SVG-20010904/DTD/svg10.dtd">
<svg version="1.0" xmlns="http://www.w3.org/2000/svg"
 width="1188.000000pt" height="492.000000pt" viewBox="0 0 1188.000000 492.000000"
 preserveAspectRatio="xMidYMid meet">

<g transform="translate(0.000000,492.000000) scale(0.100000,-0.100000)"
fill="#000000" stroke="none">
<path d="M11315 4643 c-101 -14 -260 -55 -305 -78 -104 -53 -192 -172 -245
-330 -34 -104 -88 -312 -93 -357 -6 -66 18 -138 98 -297 51 -100 77 -141 99
-154 48 -28 117 -105 150 -167 33 -62 57 -78 90 -60 39 21 39 129 1 329 -39
198 -21 318 60 421 31 39 36 42 72 37 22 -3 57 -18 79 -33 43 -30 57 -28 39 6
-12 23 -66 50 -100 50 -11 0 -20 3 -19 8 0 4 39 39 86 77 47 39 113 100 148
138 39 41 68 65 77 62 21 -8 71 -96 127 -225 27 -63 59 -133 70 -155 39 -74
22 -227 -45 -420 -64 -181 -67 -195 -55 -222 15 -32 74 -56 118 -48 19 3 52
22 74 42 l39 35 0 494 0 494 -39 78 c-79 156 -174 248 -281 271 -49 11 -182
13 -245 4z"/>
<path d="M8580 4464 c-25 -7 -70 -14 -100 -14 -71 0 -167 -23 -237 -56 -69
-33 -168 -125 -211 -197 -97 -161 -133 -414 -97 -682 26 -190 17 -273 -45
-461 -33 -98 -39 -104 -106 -104 -63 0 -117 28 -194 103 -91 88 -146 117 -221
117 -99 -1 -174 -48 -268 -170 -126 -162 -136 -164 -416 -84 -61 17 -118 26
-176 27 -75 1 -92 -2 -142 -26 -100 -49 -169 -153 -233 -348 -15 -46 -58 -144
-96 -217 -90 -176 -112 -251 -113 -372 0 -74 5 -110 23 -162 47 -136 160 -272
306 -367 68 -44 365 -201 380 -201 10 0 6 114 -5 154 -6 22 -32 76 -58 120
-39 68 -46 87 -44 127 2 52 -13 75 -45 65 -25 -8 -52 50 -52 113 0 53 17 77
48 67 17 -6 21 0 27 39 6 42 16 56 114 153 59 59 114 118 122 131 l15 23 26
-39 c37 -57 108 -99 223 -135 102 -31 160 -56 152 -64 -2 -3 -16 0 -31 6 -42
15 -124 -6 -160 -43 -39 -38 -19 -49 24 -13 36 30 105 42 161 28 36 -9 39 -9
28 6 -6 10 13 -9 44 -40 42 -43 60 -55 76 -51 33 8 51 -14 51 -63 0 -55 -27
-125 -45 -118 -7 3 -22 1 -33 -5 -16 -9 -20 -20 -19 -53 1 -31 -8 -61 -33
-108 -68 -130 -82 -162 -89 -210 -9 -55 -5 -64 26 -74 59 -19 174 5 275 55
l36 19 -28 82 c-41 123 -54 192 -54 303 -1 164 33 263 132 381 74 88 204 193
295 238 111 54 185 70 320 71 l117 0 0 25 c0 14 9 39 20 57 24 41 86 60 230
73 130 12 257 44 314 81 135 85 155 254 39 322 -36 21 -143 25 -203 7 -55 -16
-150 -12 -190 8 -54 27 -80 74 -80 144 0 43 -7 72 -25 108 -24 47 -75 208 -75
236 0 10 8 9 33 -6 42 -26 116 -26 167 0 60 31 100 100 100 174 0 39 3 44 27
49 43 8 50 0 56 -63 6 -74 35 -122 91 -155 49 -29 130 -34 162 -11 25 19 12
31 -17 16 -34 -19 -96 -14 -134 10 -75 47 -114 171 -69 221 37 41 72 52 156
47 51 -3 75 -1 69 5 -5 5 -40 12 -78 14 -59 4 -74 1 -115 -20 -52 -28 -156
-39 -181 -19 -49 41 -157 54 -232 27 -49 -18 -45 -18 -45 -2 0 7 30 20 72 31
126 32 289 130 409 243 31 29 58 53 62 53 6 0 150 -260 172 -312 17 -42 17
-42 -19 -28 -33 12 -33 3 2 -33 23 -24 27 -37 27 -86 0 -47 -5 -64 -27 -94
-33 -42 -38 -69 -8 -42 11 10 20 15 20 12 0 -4 -19 -71 -41 -149 -53 -183 -58
-276 -18 -353 105 -201 118 -230 130 -294 11 -62 10 -79 -9 -163 -30 -133 -35
-184 -23 -258 22 -133 92 -212 188 -212 54 0 96 17 131 55 22 23 22 28 13 88
-15 91 -13 242 4 323 16 75 62 182 100 231 21 29 22 36 15 101 -5 38 -23 134
-40 214 -27 122 -31 157 -25 222 23 278 -12 481 -121 693 -166 326 -479 530
-704 459z m-75 -718 c42 -18 55 -42 55 -101 0 -89 -59 -161 -139 -172 -52 -7
-83 1 -119 32 -27 23 -31 33 -37 105 -8 93 4 123 58 139 49 14 144 13 182 -3z"/>
<path d="M8410 3723 c-68 -35 -44 -94 38 -92 l47 2 -43 6 c-52 9 -85 36 -62
51 20 13 43 13 35 0 -9 -15 14 -40 36 -40 10 0 25 10 33 22 15 21 16 21 37 2
22 -19 22 -19 11 1 -29 55 -80 74 -132 48z"/>
<path d="M5604 4436 c-27 -19 -71 -118 -78 -176 -13 -96 39 -121 214 -101 227
26 317 90 265 190 -25 49 -134 84 -300 97 -63 4 -84 2 -101 -10z"/>
<path d="M1638 4004 c-52 -22 -47 -32 10 -21 61 13 114 3 151 -28 33 -28 56
-33 47 -9 -3 9 -6 17 -6 20 0 2 -17 12 -38 23 -55 28 -120 34 -164 15z"/>
<path d="M2034 4009 c-41 -10 -94 -48 -94 -69 0 -17 21 -11 51 15 37 31 90 41
151 28 53 -11 54 1 2 23 -37 16 -51 16 -110 3z"/>
<path d="M11565 4011 c-61 -15 -105 -47 -105 -77 0 -11 25 -1 51 21 37 31 90
41 151 28 58 -12 62 -1 8 21 -43 17 -58 18 -105 7z"/>
<path d="M1659 3904 c-31 -24 -28 -26 15 -8 8 3 16 -3 19 -15 7 -28 47 -28 54
-1 6 24 12 25 41 4 13 -9 22 -11 22 -4 0 16 -61 50 -91 50 -14 0 -41 -12 -60
-26z"/>
<path d="M2025 3921 c-11 -5 -29 -19 -40 -31 l-20 -23 32 17 c30 15 32 15 38
-4 6 -19 55 -30 55 -12 1 24 18 34 41 22 22 -10 21 -9 -4 14 -28 26 -64 32
-102 17z"/>
<path d="M11183 3904 c-22 -20 -23 -23 -6 -15 29 14 30 14 36 -9 7 -27 53 -27
62 0 5 17 10 18 27 9 34 -18 32 -1 -3 20 -45 28 -82 26 -116 -5z"/>
<path d="M11531 3909 c-35 -21 -37 -38 -3 -20 17 9 22 8 27 -9 9 -27 55 -27
62 0 6 23 7 23 36 9 17 -8 16 -5 -6 15 -34 31 -71 33 -116 5z"/>
<path d="M1871 3783 c-20 -96 -20 -98 14 -100 27 -2 28 -2 9 8 -20 10 -20 13
-7 71 8 35 10 65 5 70 -5 5 -14 -16 -21 -49z"/>
<path d="M11400 3817 c0 -14 -7 -47 -16 -73 -17 -51 -11 -64 31 -64 19 1 19 1
2 15 -17 12 -18 19 -7 70 9 41 9 60 1 68 -8 8 -11 4 -11 -16z"/>
<path d="M8763 3725 c-17 -7 -36 -22 -42 -34 -18 -32 -13 -36 14 -11 25 23 25
23 25 2 0 -27 15 -36 46 -28 15 4 24 14 24 26 0 21 24 28 35 10 3 -5 11 -10
17 -10 19 0 -16 33 -49 47 -38 15 -30 15 -70 -2z"/>
<path d="M8855 3657 c-11 -6 -36 -14 -55 -18 -34 -7 -34 -7 11 -8 31 -1 51 4
59 14 17 20 10 26 -15 12z"/>
<path d="M5511 3614 c-48 -20 -34 -27 28 -12 46 10 57 9 106 -11 58 -24 90
-25 90 -1 0 34 -162 51 -224 24z"/>
<path d="M5885 3616 c-23 -7 -41 -19 -43 -29 -5 -23 18 -22 90 5 51 18 66 20
106 10 58 -13 67 -7 19 13 -43 18 -116 18 -172 1z"/>
<path d="M8597 3613 c-4 -3 -7 -22 -8 -42 0 -20 -4 -45 -8 -56 -11 -26 5 -55
29 -55 22 0 27 16 8 23 -9 2 -12 23 -10 70 4 66 2 74 -11 60z"/>
<path d="M710 3563 c-36 -10 -87 -31 -115 -47 -66 -37 -162 -139 -202 -214
l-33 -59 92 -13 c50 -7 121 -20 156 -30 50 -14 72 -16 94 -8 45 16 122 2 188
-33 121 -65 155 -123 219 -379 57 -228 155 -411 301 -558 172 -175 374 -260
555 -234 133 20 189 53 346 211 116 117 141 147 175 215 33 68 40 92 43 157 4
108 -17 168 -83 235 -92 92 -167 108 -421 89 -122 -8 -196 4 -290 50 -72 35
-116 86 -181 210 -104 200 -144 242 -298 316 -203 96 -404 130 -546 92z"/>
<path d="M5549 3509 c-14 -13 -20 -21 -15 -16 20 15 44 8 39 -12 -5 -19 20
-51 41 -51 14 0 41 27 47 48 4 11 10 9 29 -6 23 -19 25 -26 25 -114 0 -51 -4
-117 -8 -145 -7 -50 -7 -53 17 -59 13 -3 33 -4 43 -1 16 4 15 6 -4 12 -22 7
-23 12 -23 131 0 177 -21 216 -121 230 -39 5 -49 3 -70 -17z"/>
<path d="M5921 3517 c-19 -6 -41 -23 -50 -37 l-16 -24 25 17 c32 22 40 21 40
-3 0 -10 9 -24 20 -30 28 -15 60 4 60 35 0 27 10 31 43 14 l22 -11 -21 21
c-25 27 -78 35 -123 18z"/>
<path d="M3773 3439 c-29 -11 -29 -28 3 -94 42 -91 126 -144 224 -145 67 0
113 25 137 75 22 45 47 45 69 0 61 -129 288 -85 360 70 30 64 30 83 -2 95 -32
13 -193 -19 -292 -56 -100 -38 -105 -38 -177 -9 -124 49 -281 81 -322 64z
m178 -50 l52 -11 -29 -13 c-16 -6 -35 -19 -42 -28 -12 -14 -10 -15 18 -4 27
10 33 10 41 -6 13 -22 35 -22 47 0 8 14 14 15 41 3 65 -27 26 -87 -63 -97 -78
-9 -160 33 -186 97 -14 35 -3 56 33 63 12 2 25 5 29 6 4 0 30 -4 59 -10z m543
1 c35 -13 34 -49 -1 -91 -53 -62 -149 -86 -219 -53 -39 19 -50 44 -33 76 7 13
14 18 16 11 3 -9 10 -9 29 -1 20 10 27 8 39 -8 14 -18 16 -18 29 -1 16 20 46
22 66 5 8 -7 4 -1 -9 15 -14 15 -33 27 -44 27 -30 0 -12 12 30 20 55 11 69 11
97 0z"/>
<path d="M9824 3218 c-40 -43 -67 -111 -72 -178 -6 -89 -1 -92 140 -91 205 1
339 53 346 134 4 48 -11 73 -56 96 -42 21 -158 46 -267 56 -65 6 -71 5 -91
-17z"/>
<path d="M604 2979 c-114 -40 -326 -49 -363 -15 -14 13 -26 10 -96 -23 -44
-21 -95 -50 -112 -65 l-33 -28 0 -518 c0 -415 3 -520 13 -528 10 -9 23 -5 52
15 21 14 58 28 82 31 49 5 49 5 28 102 -8 36 -14 76 -15 89 0 19 2 21 15 11
25 -21 87 -30 130 -19 22 6 56 27 77 49 21 21 38 36 38 35 0 -2 -9 -33 -21
-70 -11 -37 -17 -71 -12 -75 11 -10 63 -22 63 -14 0 4 -7 12 -16 18 -14 11
-14 19 0 95 9 46 16 110 16 142 0 58 0 59 29 59 27 0 29 -2 33 -52 6 -68 32
-122 74 -155 64 -48 148 -49 207 -3 l26 20 -24 -87 c-13 -49 -33 -112 -45
-142 -25 -64 -21 -81 18 -81 63 0 169 94 221 198 53 104 66 164 65 302 -1 144
-22 248 -79 386 -84 203 -129 264 -227 314 -69 34 -74 34 -144 9z m45 -337
c24 -26 121 -192 137 -234 6 -17 4 -17 -30 -3 -65 27 -207 8 -214 -29 -3 -16
1 -18 30 -13 18 3 53 12 77 21 61 23 153 6 170 -31 10 -23 10 -25 -6 -19 -10
4 -46 14 -81 22 -68 16 -121 8 -171 -24 -41 -27 -136 -25 -179 4 -36 25 -64
29 -142 25 -38 -3 -43 -1 -32 12 21 24 75 29 124 11 23 -9 58 -18 76 -21 29
-5 33 -3 30 13 -3 20 -78 43 -138 44 l-35 0 50 32 c28 17 78 49 111 70 34 21
88 63 120 93 33 30 63 54 67 55 5 0 21 -13 36 -28z m-308 -312 c20 -6 43 -18
50 -27 13 -15 12 -15 -9 -4 -13 7 -45 13 -73 13 -40 1 -54 -3 -72 -21 l-22
-23 22 11 c29 15 43 14 37 -2 -3 -8 4 -24 14 -37 17 -22 23 -23 46 -12 16 7
26 20 26 32 0 20 1 20 30 5 35 -18 39 -45 14 -103 -43 -104 -150 -141 -227
-79 -20 15 -30 34 -34 63 -5 40 10 137 26 162 17 27 111 39 172 22z m403 -1
c64 -18 86 -48 86 -117 0 -168 -182 -219 -271 -75 -30 48 -32 122 -4 153 41
46 111 61 189 39z"/>
<path d="M637 2310 c-38 -7 -76 -34 -65 -46 4 -3 15 -1 26 5 17 9 21 7 26 -14
8 -32 42 -42 67 -19 11 10 18 26 16 36 -6 21 5 23 36 7 22 -11 22 -11 2 9 -25
24 -59 31 -108 22z"/>
<path d="M2936 2889 c-61 -14 -137 -57 -183 -101 -108 -105 -115 -265 -18
-393 20 -26 24 -36 14 -40 -199 -69 -294 -145 -363 -290 -89 -185 -88 -441 3
-670 76 -191 206 -298 281 -230 26 24 26 69 -1 205 -11 58 -21 142 -21 187 -1
70 3 90 26 137 30 61 63 91 181 161 86 52 148 98 206 153 56 52 65 44 194
-188 53 -95 59 -112 63 -175 4 -83 -23 -229 -69 -363 -16 -50 -29 -97 -28
-104 2 -7 -3 -37 -9 -66 -7 -29 -12 -72 -12 -96 l0 -43 173 -33 c189 -36 251
-55 303 -95 37 -28 94 -118 94 -148 0 -10 -23 -84 -51 -165 -28 -81 -62 -184
-76 -230 l-25 -82 48 -63 c25 -34 58 -83 73 -109 l26 -48 223 0 c176 0 222 3
216 13 -5 6 -22 32 -40 57 -42 61 -124 204 -124 219 0 6 27 43 60 83 128 152
152 265 86 396 -36 70 -55 144 -72 276 -16 124 -12 234 10 241 6 2 25 6 41 10
30 6 30 6 8 -10 -13 -9 -23 -19 -23 -24 0 -4 42 -5 93 -3 51 2 109 0 130 -6
31 -9 37 -8 37 4 0 23 -68 46 -135 48 l-60 1 50 20 c103 42 293 172 364 249
l24 26 74 -132 c146 -258 147 -274 55 -593 -37 -129 -46 -175 -46 -240 -1 -80
-1 -80 66 -205 69 -130 104 -226 93 -259 -3 -11 -28 -54 -55 -96 l-50 -75 241
0 241 0 28 28 28 28 -5 119 c-4 99 -12 145 -45 265 -51 184 -61 328 -33 452
16 70 17 92 7 188 -14 136 -42 247 -91 360 -46 106 -151 267 -215 330 l-46 44
0 81 c0 129 18 241 56 341 18 50 34 93 34 95 0 2 -35 4 -78 4 -72 0 -82 3
-155 44 -76 42 -225 148 -279 198 l-26 25 -7 -48 c-19 -147 -92 -284 -179
-335 -44 -26 -59 -29 -108 -26 -101 6 -167 70 -214 207 -22 66 -33 126 -33
191 l-1 35 -59 -4 c-54 -4 -66 -1 -124 31 l-64 36 -97 -48 c-81 -39 -99 -45
-103 -32 -42 138 -149 237 -298 276 -64 16 -168 18 -229 4z"/>
<path d="M9741 2404 c-45 -20 -34 -27 21 -14 38 10 53 8 106 -9 76 -26 95 -27
90 -3 -7 36 -153 53 -217 26z"/>
<path d="M10110 2406 c-27 -7 -45 -18 -45 -26 0 -20 47 -17 105 5 38 14 53 15
94 6 62 -14 69 -8 16 13 -47 18 -106 19 -170 2z"/>
<path d="M9793 2313 c-12 -3 -27 -11 -34 -19 -11 -13 -9 -14 14 -9 24 6 27 4
27 -18 0 -13 7 -30 15 -37 21 -18 65 2 65 30 0 24 8 25 39 4 22 -16 23 -16 12
4 -6 12 -19 26 -29 30 -22 12 -81 19 -109 15z"/>
<path d="M10161 2308 c-47 -8 -71 -23 -71 -44 0 -12 5 -11 25 2 22 14 25 15
25 1 0 -19 27 -47 45 -47 22 0 47 31 42 51 -6 22 21 26 43 7 8 -7 6 -3 -3 8
-22 27 -49 32 -106 22z"/>
<path d="M9947 2223 c4 -63 0 -95 -21 -163 -13 -47 -22 -88 -18 -91 4 -4 23
-10 42 -14 35 -6 35 -6 13 12 l-22 18 19 110 c13 78 16 122 10 149 -16 70 -27
60 -23 -21z"/>
<path d="M6608 2004 c-16 -8 -28 -16 -28 -17 0 -1 34 -1 76 1 72 4 78 3 121
-28 44 -32 45 -32 41 -9 -7 54 -146 88 -210 53z"/>
<path d="M11858 1938 c-18 -72 -15 -315 5 -388 14 -53 15 -47 16 193 1 136 -1
247 -3 247 -2 0 -10 -24 -18 -52z"/>
<path d="M6653 1910 c-39 -24 -43 -33 -7 -20 33 13 31 13 37 -10 3 -12 14 -20
27 -20 13 0 24 8 27 20 6 24 12 25 41 4 13 -9 22 -11 22 -4 0 16 -61 50 -90
50 -14 0 -40 -9 -57 -20z"/>
<path d="M7011 1909 c-35 -21 -37 -38 -3 -20 27 15 29 14 35 -9 5 -19 47 -30
47 -12 1 24 18 34 41 22 22 -10 21 -9 -4 14 -34 31 -71 33 -116 5z"/>
<path d="M11151 1900 c-76 -16 -173 -51 -246 -89 -137 -70 -204 -168 -254
-372 l-27 -108 -62 43 c-78 55 -186 111 -258 136 l-56 20 6 -38 c4 -20 9 -49
12 -63 4 -22 -2 -30 -36 -53 -77 -51 -138 -69 -235 -70 -75 -1 -102 4 -165 27
-114 42 -114 42 -103 126 5 39 9 71 9 71 -10 0 -126 -50 -179 -76 -61 -31
-187 -134 -187 -154 0 -3 33 -16 73 -28 175 -51 265 -171 357 -477 52 -172 51
-201 -11 -323 -60 -118 -148 -239 -234 -321 -75 -71 -118 -91 -153 -72 -17 9
-22 6 -31 -21 -6 -17 -11 -37 -11 -44 0 -12 209 -14 1260 -14 l1260 0 0 294 0
293 -36 78 c-55 119 -69 201 -52 305 7 49 13 162 13 265 -1 156 -4 190 -23
258 -57 200 -169 328 -337 388 -68 24 -222 34 -294 19z m141 -434 c85 -49 195
-79 293 -80 50 0 97 2 105 4 11 4 16 -5 18 -36 l3 -40 -35 4 c-39 5 -99 -12
-116 -33 -9 -11 -3 -11 36 1 82 24 121 15 111 -27 -6 -22 -11 -24 -71 -24 -49
0 -69 -4 -85 -19 -28 -26 -26 -52 9 -122 21 -43 26 -62 18 -71 -8 -10 -6 -13
10 -13 40 0 42 22 6 80 -41 66 -44 96 -8 112 22 10 27 9 35 -5 13 -22 59 -23
59 -1 0 8 5 12 10 9 6 -4 8 -10 5 -14 -2 -5 2 -34 10 -65 8 -31 15 -74 15 -95
0 -100 -77 -295 -140 -356 -23 -22 -42 -29 -86 -33 l-56 -5 7 -64 c4 -35 15
-97 24 -138 18 -74 18 -75 -2 -81 -12 -4 -59 -46 -107 -93 -138 -141 -246
-177 -357 -119 l-48 25 1 61 c1 74 20 128 90 252 78 139 85 192 48 364 -19 90
-26 102 -43 82 -30 -37 -101 -2 -101 48 0 14 7 32 16 41 16 15 15 19 -5 55
-38 68 -21 138 32 128 20 -4 27 -1 27 11 1 26 41 118 104 234 l57 108 34 -30
c19 -16 54 -41 77 -55z"/>
<path d="M11288 1300 c-32 -10 -88 -48 -88 -60 0 -5 21 1 48 13 32 14 68 21
113 22 61 0 66 2 58 18 -11 19 -80 23 -131 7z"/>
<path d="M11295 1216 c-25 -7 -44 -21 -52 -36 -16 -33 -9 -36 23 -11 30 24 74
28 74 7 0 -25 33 -29 52 -6 9 11 20 19 25 18 20 -7 13 18 -8 29 -29 15 -62 15
-114 -1z"/>
<path d="M6886 1815 c-4 -16 -11 -46 -16 -66 -14 -51 -13 -56 12 -62 29 -8 36
0 15 16 -14 10 -15 18 -6 50 5 21 9 50 7 65 l-4 27 -8 -30z"/>
<path d="M7924 1695 c-22 -20 -24 -24 -7 -16 29 14 30 14 36 -9 7 -27 47 -27
54 0 5 18 7 19 37 4 l31 -16 -26 26 c-14 15 -41 29 -60 32 -29 5 -41 1 -65
-21z"/>
<path d="M8275 1711 c-11 -5 -29 -19 -40 -31 l-20 -23 31 16 c30 16 32 15 37
-3 7 -27 47 -27 54 0 6 23 8 24 35 9 34 -18 32 -1 -3 20 -36 22 -61 25 -94 12z"/>
<path d="M2728 1669 c-16 -6 -28 -17 -28 -25 0 -12 4 -12 20 -4 16 8 20 8 20
-3 0 -8 6 -20 14 -26 18 -15 56 2 56 24 0 18 2 18 45 1 39 -17 45 -8 15 19
-24 21 -103 29 -142 14z"/>
<path d="M3052 1665 c-18 -8 -31 -19 -27 -25 4 -7 12 -7 26 0 16 9 19 7 19 -9
0 -10 7 -21 15 -25 16 -6 45 2 45 13 0 3 4 12 9 19 7 11 15 11 45 -2 40 -17
47 -9 16 19 -26 24 -106 30 -148 10z"/>
<path d="M2900 1553 c0 -26 -5 -65 -11 -87 -13 -46 -3 -59 37 -53 27 4 27 5 8
11 -21 7 -22 13 -17 85 4 53 2 80 -6 85 -8 5 -11 -8 -11 -41z"/>
<path d="M734 1483 c4 -26 9 -55 12 -64 6 -20 -67 -68 -142 -95 -104 -37 -263
-19 -370 42 -37 21 -40 26 -36 56 4 32 3 31 -33 -22 -21 -30 -60 -81 -86 -112
l-49 -57 53 -50 c29 -27 69 -78 90 -112 44 -75 147 -387 147 -445 0 -83 -133
-313 -256 -443 -63 -67 -64 -69 -64 -125 l0 -56 405 0 405 0 -45 63 c-58 79
-105 173 -112 224 l-5 40 55 6 c156 16 254 144 312 408 21 95 65 389 81 544
l6 50 -79 51 c-92 61 -143 88 -231 120 l-64 25 6 -48z"/>
<path d="M2074 1306 c-51 -22 -48 -35 4 -19 27 8 63 12 86 8 34 -5 38 -4 26
10 -15 19 -74 19 -116 1z"/>
<path d="M1750 1294 c-37 -16 -70 -42 -70 -55 0 -4 21 2 48 14 31 14 68 21
109 21 40 1 63 5 63 12 0 28 -94 32 -150 8z"/>
<path d="M4640 1293 c-42 -6 -80 -25 -80 -39 0 -11 7 -12 28 -7 39 11 172 7
205 -6 22 -9 28 -8 25 1 -9 30 -114 59 -178 51z"/>
<path d="M2043 1228 c-43 -21 -42 -87 3 -153 19 -29 22 -40 13 -51 -12 -15 -2
-18 25 -8 23 9 20 30 -9 68 -35 46 -44 95 -20 113 25 17 45 17 45 -2 0 -20 49
-20 57 1 3 8 12 13 19 10 22 -8 26 12 5 23 -25 14 -109 13 -138 -1z"/>
<path d="M1780 1219 c-32 -9 -70 -41 -70 -59 0 -4 21 3 47 17 45 23 48 23 54
5 11 -30 41 -36 61 -12 9 11 20 19 25 18 20 -7 13 18 -8 29 -28 15 -60 15
-109 2z"/>
<path d="M4207 1190 c-28 -18 -10 -30 42 -30 27 0 72 -5 101 -10 29 -6 56 -8
59 -5 2 3 -5 15 -17 28 -18 18 -36 22 -95 25 -40 1 -80 -2 -90 -8z"/>
<path d="M4578 1179 c-16 -6 -28 -17 -28 -25 0 -11 16 -14 68 -14 37 0 84 -3
106 -7 31 -5 38 -3 34 8 -11 34 -127 59 -180 38z"/>
<path d="M5996 1091 c-61 -79 -166 -148 -286 -190 -135 -47 -131 -41 -124
-180 9 -188 39 -276 128 -379 26 -31 48 -67 52 -88 7 -39 0 -197 -11 -231 l-7
-23 251 0 c138 0 251 2 251 5 0 3 -11 22 -23 43 -72 114 -82 237 -30 387 37
106 58 238 49 302 -12 90 -27 123 -71 153 -47 32 -94 118 -115 208 -7 28 -13
52 -15 52 -1 0 -23 -27 -49 -59z m-306 -336 c18 0 26 6 28 23 4 25 20 28 47 8
18 -13 17 -14 -13 -30 -17 -9 -42 -16 -55 -16 -29 0 -62 33 -51 52 6 9 10 6
14 -12 4 -18 13 -25 30 -25z m283 25 c7 -27 42 -26 61 1 11 17 21 20 42 15
l27 -7 -32 -20 c-39 -23 -78 -24 -103 -2 -19 17 -24 33 -9 33 5 0 11 -9 14
-20z m-61 -318 c-2 -9 5 -9 28 3 29 15 30 15 30 -5 0 -44 -95 -74 -149 -46
-17 9 -29 21 -26 26 4 6 0 10 -7 10 -8 1 -5 7 7 16 25 19 121 16 117 -4z"/>
<path d="M5878 443 c7 -3 16 -2 19 1 4 3 -2 6 -13 5 -11 0 -14 -3 -6 -6z"/>
<path d="M5823 433 c9 -2 23 -2 30 0 6 3 -1 5 -18 5 -16 0 -22 -2 -12 -5z"/>
<path d="M4437 1113 c-4 -3 -7 -22 -8 -42 0 -20 -4 -45 -8 -56 -11 -25 4 -45
33 -45 18 1 19 2 5 13 -12 9 -15 25 -11 75 4 60 3 69 -11 55z"/>
<path d="M8822 671 l-34 -18 84 5 c80 4 85 3 124 -26 44 -32 60 -32 43 0 -27
51 -154 73 -217 39z"/>
<path d="M9193 671 c-23 -11 -44 -29 -48 -41 -10 -33 1 -35 35 -6 41 34 67 40
146 33 35 -2 64 -3 64 0 0 2 -16 11 -35 19 -47 19 -112 17 -162 -5z"/>
<path d="M8895 600 c-11 -4 -31 -20 -45 -36 l-25 -27 25 16 c30 21 40 21 40 2
0 -8 2 -15 4 -15 2 0 11 -3 20 -6 12 -5 16 1 17 22 l1 29 8 -25 c8 -24 8 -24
9 -2 1 25 1 25 38 12 l28 -10 -24 20 c-13 11 -29 20 -36 20 -7 0 -19 2 -27 4
-7 3 -22 1 -33 -4z"/>
<path d="M9235 603 c-11 -2 -31 -13 -45 -24 -24 -20 -18 -20 25 -3 10 4 15 0
15 -14 0 -12 9 -23 20 -27 24 -8 40 1 40 21 0 18 15 18 48 -3 27 -16 27 -16
-3 15 -30 31 -64 43 -100 35z"/>
<path d="M9095 506 c-4 -10 -3 -41 4 -69 10 -44 9 -52 -6 -70 -18 -19 -17 -19
7 -12 36 11 43 20 31 43 -6 11 -15 45 -19 74 -7 40 -11 48 -17 34z"/>
<path d="M7724 437 c-67 -18 -137 -59 -169 -101 -15 -20 -38 -36 -56 -40 -56
-11 -281 -176 -368 -270 l-24 -26 717 0 c573 0 717 3 709 13 -197 262 -301
348 -488 407 -87 27 -247 35 -321 17z"/>
<path d="M1940 349 c-19 -11 -69 -56 -110 -98 -91 -93 -165 -134 -243 -134
-66 0 -109 19 -172 73 -65 56 -118 80 -181 80 -138 0 -254 -97 -288 -242 l-6
-28 812 1 813 0 43 67 c49 76 48 97 -10 132 -41 25 -145 27 -208 5 -23 -8 -70
-15 -104 -15 -78 0 -120 24 -145 83 -39 91 -123 123 -201 76z"/>
</g>
</svg>
